<svg id="Layer_1" data-name="Layer 1" xmlns="http://www.w3.org/2000/svg" viewBox="0 0 1500 141"><defs><style>.cls-1{fill:#fff;fill-rule:evenodd;}</style></defs><path class="cls-1" d="M730,2V27l-41,1V139H662L661,27l-40,1V139l-28-1-1-33c-3.25,48.4-89.93,42.54-111,14l3-3,13-19c15.32,12,46.42,29,66,8,.11-8.66-1.64-9.54-5-14-28.64-7.65-83.73-14.34-72-58C498.69-14.24,559.82.74,590,19L574,41c-15.17-8.73-30.61-17.74-53-12l-5,7v6c6.69,12.75,29.63,12,44,17,18.72,6.57,24.17,14.36,33,31l1-88Z"/><path class="cls-1" d="M1439,1c27.37-.85,45.92,3.84,57,19l-7,8-6-6c-21.47-10.18-75-19.81-63,24,22,15.32,72.17,18,79,48,13.59,59.75-77,53.26-97,26v-2l7-7c8.54,6.6,16.09,14.65,28,18,23.88,6.72,55.49-4.4,50-30-8.08-37.65-81-14.23-81-62,0-11.26,3.39-18.41,9-24C1421.43,6.59,1430.33,5.44,1439,1Z"/><path class="cls-1" d="M869,2l-1,137-10-1L857,20,808,139l-5-1L755,20V139l-13-1L743,2h17l45,112,2-1C809.84,98.57,845.34,9.73,853,2Z"/><path class="cls-1" d="M982,2h99V12h-43l-1,127h-12V12H982Z"/><path class="cls-1" d="M1093,2h101V12h-45l-1,127h-9l-1-127h-45Z"/><path class="cls-1" d="M1204,2h86V12h-75V63h73V75h-73v53h75v11l-86-1Z"/><path class="cls-1" d="M1359,82c9-3.58,17.15-3.78,24-9,20.68-15.76,13.23-54.86-6-66-15.4-8.92-50.76-5.62-74-5V139h12q.49-28,1-56h29q19,28,38,56h14v-1Q1378,110,1359,82Zm-43-9V12c32.25-1.05,60.86-2.32,67,23C1392.76,75.23,1349.4,74.1,1316,73Z"/><path class="cls-1" d="M948,3,932,2,877,138v1h12l14-33h73l12,32,2,1h12ZM908,96l31-79q16,39.49,32,79Z"/><path class="cls-1" d="M452,2V87L390,4c-4.52-4.21-22.75-2.35-31-2V134L307,2H271L220,136l-2,1L189,86c36.31-6.15,35.48-61.83,9-78C176.31-5.24,39.83,1.52,0,2V27H40q.49,56,1,112H68V28l40-1q.5,56,1,112h27q.5-24,1-48h21l26,46c14.59,6.7,47.27,2.27,66,2q5-11.5,10-23l59,1q3.5,10.5,7,21l63,1V51l64,88h26q.5-68.49,1-137ZM185,58c-10.86,7.6-28.22,7.51-48,7V27c22-.35,37.33.14,49,9C188.18,44.18,187.39,50.63,185,58Zm83,32q10-28,20-56c11.12,8.56,17,42.08,22,56Z"/></svg>