<?xml version="1.0" encoding="utf-8"?>
<!-- Generator: Adobe Illustrator 23.0.1, SVG Export Plug-In . SVG Version: 6.00 Build 0)  -->
<svg version="1.1" xmlns="http://www.w3.org/2000/svg" xmlns:xlink="http://www.w3.org/1999/xlink" x="0px" y="0px"
	 viewBox="0 0 69 70" style="enable-background:new 0 0 69 70;" xml:space="preserve">
<style type="text/css">
	.st0{fill:#DA291C;}
	.st1{fill:#00843D;}
	.st2{fill:#003DA5;}
	.st3{fill:#ED8B00;}
	.st4{fill:#7C878E;}
	.st5{fill:#80276C;}
	.st6{display:none;fill:none;stroke:#804B00;stroke-width:20;stroke-miterlimit:10;}
	.st7{fill:url(#SVGID_3_);}
	.st8{fill:#FFFFFF;stroke:#FFFFFF;stroke-width:10;stroke-miterlimit:10;}
	.st9{fill:#ED8B00;stroke:#FFFFFF;stroke-width:10;stroke-miterlimit:10;}
	.st10{stroke:#FFFFFF;stroke-width:10;stroke-miterlimit:10;}
	.st11{fill:none;stroke:#FFFFFF;stroke-width:4;stroke-miterlimit:10;stroke-dasharray:3.955,1.9775;}
	.st12{fill:none;stroke:#FFFFFF;stroke-width:2;stroke-miterlimit:10;stroke-dasharray:1.9861,1.9861;}
	.st13{fill:#FFFFFF;}
	.st14{fill:url(#SVGID_4_);}
	.st15{fill:#00843D;stroke:#FFFFFF;stroke-width:10;stroke-miterlimit:10;}
	.st16{fill:#00843D;stroke:#FFFFFF;stroke-width:8;stroke-miterlimit:10;}
	.st17{fill:#FFFFFF;stroke:#FFFFFF;stroke-width:8;stroke-miterlimit:10;}
	.st18{fill:url(#SVGID_5_);}
	.st19{fill:#C9C9C9;}
	.st20{fill:url(#bg_4_);}
	.st21{opacity:0.8;}
	.st22{opacity:0.5;}
	.st23{fill:none;stroke:#000000;stroke-width:10;stroke-miterlimit:10;}
	.st24{fill:#ED8B00;stroke:#000000;stroke-width:8;stroke-miterlimit:10;}
	.st25{fill:none;stroke:#FFFFFF;stroke-width:2;stroke-miterlimit:10;}
	.st26{fill:#2E2D2C;stroke:#000000;stroke-width:2;stroke-miterlimit:10;}
	.st27{fill:#2E2D2C;}
	.st28{fill:#D31A2B;}
	.st29{fill:#2E2D2C;stroke:#FFFFFF;stroke-width:4;stroke-miterlimit:10;}
	.st30{fill:url(#bg_5_);}
	.st31{clip-path:url(#SVGID_7_);}
	.st32{fill:#EAEAEA;}
	.st33{fill:none;stroke:#98A0A5;stroke-width:2;stroke-linecap:round;stroke-miterlimit:10;}
	.st34{fill:none;stroke:#E6E6E6;stroke-miterlimit:10;}
	.st35{fill:none;stroke:#98A0A5;stroke-miterlimit:10;}
	.st36{fill:url(#bg_6_);}
	.st37{fill:url(#bg_7_);}
	.st38{clip-path:url(#SVGID_9_);}
	.st39{clip-path:url(#SVGID_11_);}
</style>
<g id="Palette">
</g>
<g id="sandbox">
</g>
<g id="_x34_80">
</g>
<g id="_x37_68_w_x2F__menu">
	<g>
		<g>
			
				<ellipse transform="matrix(0.0146 -0.9999 0.9999 0.0146 -1.3725 68.9824)" class="st13" cx="34.31" cy="35.19" rx="26.02" ry="26.02"/>
		</g>
		<polygon class="st27" points="16.21,22.32 52.52,22.32 52.52,30.99 39.38,30.99 39.38,53.21 29.35,53.21 29.35,30.99 16.21,30.99 
					"/>
		<g>
			<g>
				<path class="st28" d="M-0.38,35.19c0-19.16,15.53-34.69,34.69-34.69C53.47,0.5,69,16.03,69,35.19
					c0,19.16-15.53,34.69-34.69,34.69C15.15,69.88-0.38,54.34-0.38,35.19z M34.31,61.2c14.37,0,26.02-11.65,26.02-26.02
					c0-14.37-11.65-26.02-26.02-26.02C19.94,9.17,8.3,20.82,8.3,35.19C8.3,49.56,19.94,61.2,34.31,61.2z"/>
			</g>
		</g>
	</g>
</g>
<g id="_x37_68_1_">
</g>
<g id="_x31_280">
</g>
</svg>
