<?xml version="1.0" encoding="utf-8"?>
<!-- Generator: Adobe Illustrator 23.0.1, SVG Export Plug-In . SVG Version: 6.00 Build 0)  -->
<svg version="1.1" xmlns="http://www.w3.org/2000/svg" xmlns:xlink="http://www.w3.org/1999/xlink" x="0px" y="0px"
	 viewBox="0 0 138 20" style="enable-background:new 0 0 138 20;" xml:space="preserve">
<style type="text/css">
	.st0{fill:#DA291C;}
	.st1{fill:#00843D;}
	.st2{fill:#003DA5;}
	.st3{fill:#ED8B00;}
	.st4{fill:#7C878E;}
	.st5{fill:#80276C;}
	.st6{display:none;fill:none;stroke:#804B00;stroke-width:20;stroke-miterlimit:10;}
	.st7{fill:url(#SVGID_3_);}
	.st8{fill:#FFFFFF;stroke:#FFFFFF;stroke-width:10;stroke-miterlimit:10;}
	.st9{fill:#ED8B00;stroke:#FFFFFF;stroke-width:10;stroke-miterlimit:10;}
	.st10{stroke:#FFFFFF;stroke-width:10;stroke-miterlimit:10;}
	.st11{fill:none;stroke:#FFFFFF;stroke-width:4;stroke-miterlimit:10;stroke-dasharray:3.955,1.9775;}
	.st12{fill:none;stroke:#FFFFFF;stroke-width:2;stroke-miterlimit:10;stroke-dasharray:1.9861,1.9861;}
	.st13{fill:#FFFFFF;}
	.st14{fill:url(#SVGID_4_);}
	.st15{fill:#00843D;stroke:#FFFFFF;stroke-width:10;stroke-miterlimit:10;}
	.st16{fill:#00843D;stroke:#FFFFFF;stroke-width:8;stroke-miterlimit:10;}
	.st17{fill:#FFFFFF;stroke:#FFFFFF;stroke-width:8;stroke-miterlimit:10;}
	.st18{fill:url(#SVGID_5_);}
	.st19{fill:#C9C9C9;}
	.st20{fill:url(#bg_4_);}
	.st21{opacity:0.8;}
	.st22{opacity:0.5;}
	.st23{fill:none;stroke:#000000;stroke-width:10;stroke-miterlimit:10;}
	.st24{fill:#ED8B00;stroke:#000000;stroke-width:8;stroke-miterlimit:10;}
	.st25{fill:none;stroke:#FFFFFF;stroke-width:2;stroke-miterlimit:10;}
	.st26{fill:#2E2D2C;stroke:#000000;stroke-width:2;stroke-miterlimit:10;}
	.st27{fill:#2E2D2C;}
	.st28{fill:#D31A2B;}
	.st29{fill:#2E2D2C;stroke:#FFFFFF;stroke-width:4;stroke-miterlimit:10;}
	.st30{fill:url(#bg_5_);}
	.st31{clip-path:url(#SVGID_7_);}
	.st32{fill:#EAEAEA;}
	.st33{fill:none;stroke:#98A0A5;stroke-width:2;stroke-linecap:round;stroke-miterlimit:10;}
	.st34{fill:none;stroke:#E6E6E6;stroke-miterlimit:10;}
	.st35{fill:none;stroke:#98A0A5;stroke-miterlimit:10;}
	.st36{fill:url(#bg_6_);}
	.st37{fill:url(#bg_7_);}
	.st38{clip-path:url(#SVGID_9_);}
	.st39{clip-path:url(#SVGID_11_);}
</style>
<g id="Palette">
</g>
<g id="sandbox">
</g>
<g id="_x34_80">
	<g>
		<path class="st27" d="M4.08,16.27V6.03h-3.7V3.69h9.99v2.34h-3.7v10.24H4.08z"/>
		<path class="st27" d="M17.39,16.27l-2.45-4.44h-1.98v4.44h-2.59V3.69h5.8c2.6,0,4.2,1.74,4.2,4.06c0,2.19-1.4,3.42-2.75,3.74
			l2.82,4.79H17.39z M17.65,7.74c0-1.03-0.8-1.71-1.85-1.71h-2.84v3.45h2.84C16.85,9.49,17.65,8.8,17.65,7.74z"/>
		<path class="st27" d="M30.37,16.27l-0.78-2.1h-5.34l-0.78,2.1h-3.01l4.8-12.58h3.32l4.8,12.58H30.37z M26.92,6.47l-1.94,5.36h3.88
			L26.92,6.47z"/>
		<path class="st27" d="M41.97,16.27L36.03,8.1v8.17h-2.71V3.69h2.79l5.73,7.91V3.69h2.59v12.58H41.97z"/>
		<path class="st27" d="M44.53,14.47l1.46-2.07c0.88,0.92,2.24,1.7,3.96,1.7c1.48,0,2.17-0.65,2.17-1.38c0-2.17-7.17-0.65-7.17-5.34
			c0-2.07,1.79-3.79,4.73-3.79c1.98,0,3.62,0.6,4.86,1.74L53.05,7.3c-1.01-0.93-2.35-1.36-3.62-1.36c-1.12,0-1.76,0.49-1.76,1.23
			c0,1.96,7.15,0.64,7.15,5.29c0,2.28-1.64,4-4.99,4C47.42,16.45,45.71,15.65,44.53,14.47z"/>
		<path class="st27" d="M54.91,16.27V3.69h2.47v12.58H54.91z"/>
		<path class="st27" d="M61.08,16.27V6.03h-3.7V3.69h9.99v2.34h-3.7v10.24H61.08z"/>
		<path class="st28" d="M79.21,16.27V5.12l-4.65,11.16h-0.41L69.71,5.12v11.16h-1.23V3.69h1.63l4.24,10.37l4.22-10.37h1.5v12.58
			H79.21z"/>
		<path class="st28" d="M91.18,16.27l-1.23-3.08h-6.59l-1.23,3.08h-1.23l5.1-12.58h1.33l5.1,12.58H91.18z M86.66,5.04l-2.95,7.28
			h5.88L86.66,5.04z"/>
		<path class="st28" d="M94.51,16.27V4.67h-3.95V3.69h9.01v0.99h-3.95v11.6H94.51z"/>
		<path class="st28" d="M104.87,16.27V4.67h-4.07V3.69h9.25v0.99h-4.19v11.6H104.87z"/>
		<path class="st28" d="M110.91,16.27V3.69h7.9v0.99h-6.91v4.56h6.66v1.23h-6.66v4.81h6.91v0.99H110.91z"/>
		<path class="st28" d="M127.38,16.27l-3.49-5.18h-2.73v5.18h-1.11V3.69h4.68c2.15,0,3.79,1.4,3.79,3.68c0,2.26-1.59,3.55-3.46,3.63
			l3.6,5.27H127.38z M127.4,7.44c0-1.57-1.1-2.77-2.76-2.77h-3.48v5.55h3.48C126.3,10.23,127.4,9.01,127.4,7.44z"/>
		<path class="st28" d="M129.05,14.47l0.69-0.8c0.8,0.92,2.11,1.81,3.9,1.81c2.54,0,3.27-1.42,3.27-2.48c0-3.66-7.47-1.76-7.47-6.11
			c0-2.04,1.83-3.32,4.09-3.32c1.85,0,3.27,0.65,4.22,1.76l-0.71,0.78c-0.9-1.08-2.17-1.57-3.57-1.57c-1.66,0-2.91,0.95-2.91,2.3
			c0,3.19,7.47,1.44,7.47,6.09c0,1.61-1.06,3.53-4.43,3.53C131.55,16.45,130,15.61,129.05,14.47z"/>
	</g>
</g>
<g id="_x37_68_w_x2F__menu">
</g>
<g id="_x37_68_1_">
</g>
<g id="_x31_280">
</g>
</svg>
