<?xml version="1.0" encoding="utf-8"?>
<!-- Generator: Adobe Illustrator 23.0.1, SVG Export Plug-In . SVG Version: 6.00 Build 0)  -->
<svg version="1.1" xmlns="http://www.w3.org/2000/svg" xmlns:xlink="http://www.w3.org/1999/xlink" x="0px" y="0px"
	 viewBox="0 0 50 54" style="enable-background:new 0 0 50 54;" xml:space="preserve">
<style type="text/css">
	.st0{fill:#DA291C;}
	.st1{fill:#00843D;}
	.st2{fill:#003DA5;}
	.st3{fill:#ED8B00;}
	.st4{fill:#7C878E;}
	.st5{fill:#80276C;}
	.st6{display:none;fill:none;stroke:#804B00;stroke-width:20;stroke-miterlimit:10;}
	.st7{fill:url(#SVGID_3_);}
	.st8{fill:#FFFFFF;stroke:#FFFFFF;stroke-width:10;stroke-miterlimit:10;}
	.st9{fill:#ED8B00;stroke:#FFFFFF;stroke-width:10;stroke-miterlimit:10;}
	.st10{stroke:#FFFFFF;stroke-width:10;stroke-miterlimit:10;}
	.st11{fill:none;stroke:#FFFFFF;stroke-width:4;stroke-miterlimit:10;stroke-dasharray:3.955,1.9775;}
	.st12{fill:none;stroke:#FFFFFF;stroke-width:2;stroke-miterlimit:10;stroke-dasharray:1.9861,1.9861;}
	.st13{fill:#FFFFFF;}
	.st14{fill:url(#SVGID_4_);}
	.st15{fill:#00843D;stroke:#FFFFFF;stroke-width:10;stroke-miterlimit:10;}
	.st16{fill:#00843D;stroke:#FFFFFF;stroke-width:8;stroke-miterlimit:10;}
	.st17{fill:#FFFFFF;stroke:#FFFFFF;stroke-width:8;stroke-miterlimit:10;}
	.st18{fill:url(#SVGID_5_);}
	.st19{fill:#C9C9C9;}
	.st20{fill:url(#bg_4_);}
	.st21{opacity:0.8;}
	.st22{opacity:0.5;}
	.st23{fill:none;stroke:#000000;stroke-width:10;stroke-miterlimit:10;}
	.st24{fill:#ED8B00;stroke:#000000;stroke-width:8;stroke-miterlimit:10;}
	.st25{fill:none;stroke:#FFFFFF;stroke-width:2;stroke-miterlimit:10;}
	.st26{fill:#2E2D2C;stroke:#000000;stroke-width:2;stroke-miterlimit:10;}
	.st27{fill:#2E2D2C;}
	.st28{fill:#D31A2B;}
	.st29{fill:#2E2D2C;stroke:#FFFFFF;stroke-width:4;stroke-miterlimit:10;}
	.st30{fill:url(#bg_5_);}
	.st31{clip-path:url(#SVGID_7_);}
	.st32{fill:#EAEAEA;}
	.st33{fill:none;stroke:#98A0A5;stroke-width:2;stroke-linecap:round;stroke-miterlimit:10;}
	.st34{fill:none;stroke:#E6E6E6;stroke-miterlimit:10;}
	.st35{fill:none;stroke:#98A0A5;stroke-miterlimit:10;}
	.st36{fill:url(#bg_6_);}
	.st37{fill:url(#bg_7_);}
	.st38{clip-path:url(#SVGID_9_);}
	.st39{clip-path:url(#SVGID_11_);}
</style>
<g id="Palette">
</g>
<g id="sandbox">
</g>
<g id="_x34_80">
	<g>
		<g>
			<g>
				<path d="M12.55,49.68c-1.76,0-8.36-6.72-8.42-9.77l1.91-26.54v-0.05c0-2.95,4.63-9.05,18.96-9.05c15,0,18.96,5.92,18.96,9.05
					v0.05l1.91,26.54c-0.07,2.77-6.83,9.69-8.42,9.77H12.55z"/>
				<path class="st3" d="M25,5.65c12.9,0,17.58,4.59,17.58,7.68v0.1l0.01,0.1l1.89,26.37c-0.08,0.53-0.88,2.27-2.99,4.7
					c-2.04,2.35-3.69,3.49-4.24,3.71H12.67c-0.58-0.18-2.34-1.39-4.3-3.67c-2.05-2.39-2.8-4.18-2.85-4.71l1.9-26.4l0.01-0.1v-0.1
					C7.42,11.8,10.55,5.65,25,5.65 M25,2.89c-15.89,0-20.34,7.12-20.34,10.43L2.76,39.87c0,3.57,6.99,11.2,9.8,11.2h24.89
					c2.55,0,9.8-7.88,9.8-11.2l-1.91-26.54C45.34,9.37,40.89,2.89,25,2.89L25,2.89z"/>
			</g>
			<path class="st13" d="M25,2.89c15.89,0,20.34,6.48,20.34,10.43l1.91,26.54c0,3.32-7.24,11.2-9.8,11.2H12.55
				c-2.81,0-9.8-7.63-9.8-11.2l1.91-26.54C4.66,10.01,9.11,2.89,25,2.89 M25,0.13C8.18,0.13,1.99,7.91,1.91,13.21l-1.9,26.46
				L0,39.77v0.1c0,3.32,3.18,7.24,4.55,8.77c1.73,1.94,5.06,5.18,8.01,5.18h24.89c2.64,0,5.76-2.87,7.91-5.27
				C47.09,46.6,50,42.9,50,39.87v-0.1l-0.01-0.1l-1.9-26.45c-0.04-3.32-2.01-6.54-5.41-8.87C38.58,1.55,32.63,0.13,25,0.13L25,0.13z
				"/>
			<rect x="15.91" y="8.19" class="st19" width="18.18" height="4.87"/>
			<rect x="17.02" y="14.97" class="st13" width="15.97" height="31.04"/>
			<polygon class="st19" points="14.24,32.38 8.06,32.38 9.2,14.97 14.24,14.97 			"/>
			<polygon class="st19" points="35.72,32.38 41.9,32.38 40.76,14.97 35.72,14.97 			"/>
		</g>
	</g>
</g>
<g id="_x37_68_w_x2F__menu">
</g>
<g id="_x37_68_1_">
</g>
<g id="_x31_280">
</g>
</svg>
